KATEVASTE KAI TA ALLA DYO TOY STORY:

Toy Story 1: https://thepiratebay.org/torrent/6068737/Toy_Story_%281995%29__Greek_Audio_%28AC-3_Stereo%29.avi

Toy Story 3: https://thepiratebay.org/torrent/6130676/Toy.Story.3.2010.Greek.DVDRiP.XviD-Ouzo.katerino0la.avi


English Plot:
While Andy is away at summer camp Woody has been toynapped by Al McWiggin, a greedy collector and proprietor of "Al's Toy Barn"! In this all-out rescue mission, Buzz and his friends Mr. Potato Head, Slinky Dog, Rex and Hamm springs into action to rescue Woody from winding up as a museum piece. They must find a way to save him before he gets sold in Japan forever and they'll never see him again! 

Greek (Hellenic) Plot:
Ta paixnidia einai pisw me tis plakes, tis filies, toys erwtes kai tis paraksenies toys. O Anti feygei gia thn kataskhnwsh, skopeyontas na parei mazi toy ton Goynti ma panw sto paixnidi to xeri toy Goynti skizetai elafra ki etsi o Anti ton bazei sto rafi. O Goynti tha brethei sto ksepoylhma ths oikogeneias toy Anti kai tha klapei apo ton Al, enan pwlhth paixnidiwn poy me ton Goynti oloklhrwse thn tetrada paixnidiwn, hrwwn enos palioy sirial me skopo na thn poylhsei se ena moyseio sthn Iapwnia. Ta paixnidia toy Anti me epikefalh ton Mpaz ksekinane mia ekstrateia gia na ton broyn enw aytos gnwrizetai me ta alla melh ths tetradas: to alogo Apaikto, thn kaoympoisa Tzesi kai to xrysothyra "Bromiko" Pit. O Mpaz kai oi ypoloipoi eisballoyn sto paixnidadiko toy Al kai meta apo ena mperdema, anamesa sta ypoloipa paixnidia brisketai enas allos Mpaz, enas Mpaz poy pisteyei pws einai astrofylakas! En tw metaksy o Goynti briskei kalh thn idea na paei sthn Iapwnia kai apofasizei na meinei mazi me toys ypoloipoys treis. H parea twn paixnidiwn me ton pseytiko Mpaz ftanoyn kai prospathoyn na swsoyn to Goynti kai tote emfanizetai o alhthinos Mpaz. O Goynti allazei gnwmh kai telika apofasizei na paei pisw ston Anti alla o Xrysothyras exei antirhseis. Ekeinh thn wra o Al pairnei thn balitsa poy exei mesa ton Goynti, thn Tzesi, ton Xrysothyra kai ton Apaikto. Ta paixnidia ton katadiwkoyn mexri to aerodromio kai meta apo polles pripeteies katafernoyn na nikhsoyn ton Xrysothyra kai na glytwsoyn apo ton Al. Thn epomenh mera oloi einai pisw sto spiti toy Anti kai mazi toy einai h Tzesi kai o Apaiktos.


Technical Details:

General
Complete name                    : Toy Story 2.avi
Format                           : AVI
Format/Info                      : Audio Video Interleave
File size                        : 1.09 GiB
Duration                         : 1h 28mn
Overall bit rate                 : 1 769 Kbps
Writing application              : VirtualDubMod 1.5.4.1 (build 2178/release)
Writing library                  : VirtualDubMod build 2178/release

Video
ID                               : 0
Format                           : MPEG-4 Visual
Format profile                   : Advanced Simple@L5
Format settings, BVOP            : 1
Format settings, QPel            : No
Format settings, GMC             : No warppoints
Format settings, Matrix          : Custom
Codec ID                         : XVID
Codec ID/Hint                    : XviD
Duration                         : 1h 28mn
Bit rate                         : 1 570 Kbps
Width                            : 688 pixels
Height                           : 384 pixels
Display aspect ratio             : 16:9
Frame rate                       : 25.000 fps
Color space                      : YUV
Chroma subsampling               : 4:2:0
Bit depth                        : 8 bits
Scan type                        : Progressive
Compression mode                 : Lossy
Bits/(Pixel*Frame)               : 0.238
Stream size                      : 994 MiB (89%)
Writing library                  : XviD 1.2.0SMP (UTC 2006-01-08)

Audio
ID                               : 1
Format                           : MPEG Audio
Format version                   : Version 1
Format profile                   : Layer 3
Mode                             : Joint stereo
Codec ID                         : 55
Codec ID/Hint                    : MP3
Duration                         : 1h 28mn
Bit rate mode                    : Constant
Bit rate                         : 192 Kbps
Channel(s)                       : 2 channels
Sampling rate                    : 48.0 KHz
Compression mode                 : Lossy
Stream size                      : 122 MiB (11%)
Alignment                        : Aligned on interleaves
Interleave, duration             : 80 ms (2.00 video frames)
Interleave, preload duration     : 504 ms
Writing library                  : LAME3.97b
Encoding settings                : -m j -V 4 -q 2 -lowpass 18.6 -b 192
Language                         : Greek


Proteinomenos player: VLC Media player


Screens:
 
http://img135.imageshack.us/img135/3108/snapshot1c.png 
http://img690.imageshack.us/img690/1452/snapshot2zg.png 
http://img88.imageshack.us/img88/6638/snapshot3r.png 
http://img30.imageshack.us/img30/2204/snapshot4i.png


Source: Visual Art Team, GRTorrent


THE PIRATE BAY HELLAS